<?xml version="1.0" standalone="no"?>
<!DOCTYPE svg PUBLIC "-//W3C//DTD SVG 20010904//EN"
 "http://www.w3.org/TR/2001/REC-SVG-20010904/DTD/svg10.dtd">
<svg version="1.0" xmlns="http://www.w3.org/2000/svg"
 width="572.000000pt" height="572.000000pt" viewBox="0 0 572.000000 572.000000"
 preserveAspectRatio="xMidYMid meet">

<g transform="translate(0.000000,572.000000) scale(0.100000,-0.100000)"
fill="#000000" stroke="none">
<path d="M5680 5522 c0 -7 -4 -12 -9 -12 -13 0 -83 -42 -78 -46 2 -3 20 2 39
10 37 16 65 42 54 53 -3 3 -6 1 -6 -5z"/>
<path d="M5560 5448 c0 -11 -5 -15 -15 -12 -8 4 -15 1 -15 -5 0 -6 18 -11 43
-11 23 0 66 -3 95 -6 32 -4 52 -2 52 4 0 5 -26 12 -57 14 -70 6 -86 10 -95 23
-5 6 -8 3 -8 -7z"/>
<path d="M2395 5430 c3 -5 8 -10 11 -10 2 0 4 5 4 10 0 6 -5 10 -11 10 -5 0
-7 -4 -4 -10z"/>
<path d="M5505 5420 c-3 -5 -1 -10 4 -10 6 0 11 5 11 10 0 6 -2 10 -4 10 -3 0
-8 -4 -11 -10z"/>
<path d="M3582 5300 c0 -14 2 -19 5 -12 2 6 2 18 0 25 -3 6 -5 1 -5 -13z"/>
<path d="M4966 5215 c24 -39 24 -40 24 -28 0 6 -9 21 -21 34 l-20 24 17 -30z"/>
<path d="M1230 5180 c-6 -11 -8 -20 -5 -20 3 0 -2 -11 -11 -25 -9 -14 -14 -28
-11 -31 7 -7 26 28 37 67 10 34 5 38 -10 9z"/>
<path d="M2322 5160 c0 -14 2 -19 5 -12 2 6 2 18 0 25 -3 6 -5 1 -5 -13z"/>
<path d="M2298 5092 c-11 -23 -14 -41 -9 -51 7 -11 12 -5 21 28 15 56 9 67
-12 23z"/>
<path d="M4331 5104 c0 -11 3 -14 6 -6 3 7 2 16 -1 19 -3 4 -6 -2 -5 -13z"/>
<path d="M3601 5075 c0 -16 6 -39 14 -49 15 -20 15 -20 15 0 0 11 -4 24 -9 30
-5 5 -11 18 -14 29 -3 14 -5 11 -6 -10z"/>
<path d="M1186 5063 c-6 -14 -5 -15 5 -6 7 7 10 15 7 18 -3 3 -9 -2 -12 -12z"/>
<path d="M3390 5072 c0 -5 16 -9 35 -10 19 -1 35 2 35 6 0 4 -16 9 -35 10 -19
2 -35 -1 -35 -6z"/>
<path d="M3470 5069 c0 -5 9 -9 20 -9 11 0 20 2 20 4 0 2 -9 6 -20 9 -11 3
-20 1 -20 -4z"/>
<path d="M1765 5040 c-3 -5 -1 -10 4 -10 6 0 11 5 11 10 0 6 -2 10 -4 10 -3 0
-8 -4 -11 -10z"/>
<path d="M1155 4975 c-9 -32 -14 -59 -12 -61 2 -3 11 21 20 53 9 31 15 58 13
61 -2 2 -12 -22 -21 -53z"/>
<path d="M1757 5006 c-4 -10 -7 -25 -6 -34 0 -11 4 -9 10 7 5 13 8 29 6 35 -2
5 -6 2 -10 -8z"/>
<path d="M5060 5011 c0 -5 5 -13 10 -16 6 -3 10 -2 10 4 0 5 -4 13 -10 16 -5
3 -10 2 -10 -4z"/>
<path d="M2236 4985 c-3 -8 -1 -15 4 -15 6 0 10 7 10 15 0 8 -2 15 -4 15 -2 0
-6 -7 -10 -15z"/>
<path d="M2281 4984 c0 -11 3 -14 6 -6 3 7 2 16 -1 19 -3 4 -6 -2 -5 -13z"/>
<path d="M4390 4965 c0 -5 5 -17 10 -25 5 -8 10 -10 10 -5 0 6 -5 17 -10 25
-5 8 -10 11 -10 5z"/>
<path d="M406 4943 c-6 -14 -5 -15 5 -6 7 7 10 15 7 18 -3 3 -9 -2 -12 -12z"/>
<path d="M2213 4943 c-3 -10 -8 -22 -10 -28 -3 -5 3 -1 11 9 16 20 21 36 11
36 -3 0 -8 -8 -12 -17z"/>
<path d="M1730 4901 c-6 -28 -10 -56 -8 -63 3 -7 10 14 16 47 15 72 9 85 -8
16z"/>
<path d="M5091 4939 c-1 -9 2 -19 7 -23 4 -4 12 -22 19 -39 6 -18 12 -25 12
-17 1 21 -37 99 -38 79z"/>
<path d="M2271 4914 c0 -11 3 -14 6 -6 3 7 2 16 -1 19 -3 4 -6 -2 -5 -13z"/>
<path d="M3637 4880 c3 -30 9 -62 14 -70 12 -21 10 -4 -6 65 l-14 60 6 -55z"/>
<path d="M4400 4914 c0 -5 7 -19 15 -30 8 -10 15 -14 15 -8 0 5 -7 19 -15 30
-8 10 -15 14 -15 8z"/>
<path d="M1121 4863 c-6 -22 -13 -55 -17 -74 -9 -54 12 -13 25 50 13 63 7 81
-8 24z"/>
<path d="M2187 4893 c-4 -3 -7 -13 -7 -22 1 -13 3 -13 11 2 11 19 8 33 -4 20z"/>
<path d="M2258 4840 c-2 -22 0 -40 4 -40 5 0 8 18 8 40 0 22 -2 40 -4 40 -2 0
-6 -18 -8 -40z"/>
<path d="M4432 4840 c0 -14 2 -19 5 -12 2 6 2 18 0 25 -3 6 -5 1 -5 -13z"/>
<path d="M2146 4810 c-19 -47 -20 -53 -6 -45 6 3 10 14 10 24 0 10 7 24 15 31
17 14 20 30 6 30 -5 0 -16 -18 -25 -40z"/>
<path d="M1709 4808 c0 -7 -2 -29 -5 -48 -2 -19 -9 -72 -14 -117 -5 -46 -27
-140 -48 -210 -86 -281 -122 -487 -122 -703 0 -145 -5 -176 -13 -85 -3 28 -10
88 -17 133 -9 58 -11 150 -6 300 6 233 9 273 25 313 14 38 -4 61 -20 26 -7
-15 -16 -27 -21 -27 -4 0 -8 -12 -8 -28 0 -15 -11 -72 -25 -127 -14 -55 -28
-116 -31 -135 -3 -19 -8 -38 -10 -41 -2 -4 -7 -42 -10 -84 -3 -43 -9 -99 -13
-125 -19 -119 -1 -391 35 -534 20 -76 6 -90 -32 -34 -16 24 -32 45 -35 48 -24
19 -163 322 -183 400 -10 36 -20 72 -23 80 -3 8 -7 24 -8 35 -2 11 -8 40 -14
65 -25 102 -38 263 -37 457 0 110 -2 196 -6 190 -4 -7 -8 -84 -9 -172 0 -149
-10 -288 -24 -360 -3 -16 -12 -88 -21 -160 -24 -205 -13 -408 37 -688 19 -109
83 -290 141 -401 8 -14 7 -17 -4 -10 -38 23 -186 179 -268 282 -14 18 -33 42
-44 54 -10 13 -43 60 -73 106 -56 83 -87 110 -39 33 31 -49 32 -54 5 -46 -12
4 -29 8 -37 9 -10 2 -21 21 -28 52 -6 27 -12 39 -13 27 -1 -22 34 -173 63
-275 20 -66 14 -100 -20 -118 -46 -25 -57 -56 -57 -155 1 -51 7 -111 16 -137
8 -26 11 -48 6 -50 -6 -2 -3 -12 4 -22 9 -12 19 -16 27 -11 7 4 8 10 3 14 -12
8 -43 156 -43 207 0 57 11 105 21 98 5 -3 9 -2 8 3 -1 4 1 16 5 25 7 14 21 18
75 17 40 0 75 -7 89 -16 13 -8 26 -12 29 -9 11 11 -30 39 -74 50 -40 10 -47
16 -58 51 -24 77 -39 130 -41 145 -1 8 -6 30 -10 49 l-7 34 39 -8 c50 -9 48
-7 89 -70 20 -29 55 -73 78 -97 23 -24 42 -47 43 -53 0 -5 6 -22 12 -37 6 -15
8 -52 5 -85 -10 -107 -5 -142 31 -217 36 -75 81 -135 92 -123 4 3 -4 21 -18
39 -35 47 -58 94 -50 103 4 5 2 5 -4 2 -25 -14 -46 120 -35 223 l6 55 22 -65
c12 -36 29 -99 37 -140 9 -41 20 -91 26 -110 69 -250 78 -280 79 -256 1 19
-27 136 -56 236 -9 30 -18 60 -19 65 -3 16 -45 188 -51 209 -3 12 9 5 35 -20
57 -56 163 -148 174 -153 6 -2 -1 14 -16 35 -14 21 -26 42 -26 46 0 4 -13 30
-30 58 -16 27 -27 50 -24 50 4 0 2 6 -3 13 -10 11 -52 132 -53 149 -1 4 -7 26
-15 48 -8 22 -17 59 -20 82 -4 23 -8 45 -10 49 -5 7 -11 44 -25 149 -6 47 -13
97 -16 113 -5 30 -2 32 29 15 27 -14 47 -34 47 -46 0 -6 3 -12 8 -14 4 -1 35
-37 69 -78 34 -41 83 -97 108 -125 26 -27 54 -60 62 -73 32 -47 24 -9 -14 70
-59 120 -85 187 -80 206 4 15 5 15 6 -1 1 -16 38 -70 136 -199 41 -54 71 -66
55 -22 -11 27 -28 99 -36 144 -2 14 -7 41 -10 60 -4 19 -9 79 -13 133 -5 74
-3 97 6 97 7 0 13 4 13 9 0 9 58 36 65 30 2 -2 10 -31 18 -64 8 -33 24 -96 35
-140 20 -82 58 -257 66 -308 17 -103 70 -225 122 -279 39 -41 38 -58 -1 -50
-15 2 -25 0 -25 -7 0 -17 139 -14 207 5 32 8 92 24 133 34 159 39 195 50 158
45 -21 -2 -38 -1 -38 2 0 4 13 34 30 67 16 34 36 88 45 121 17 68 20 230 4
290 -6 22 -13 52 -16 67 -3 15 -11 33 -19 39 -11 9 -14 6 -14 -18 0 -16 -10
-49 -22 -73 -19 -38 -28 -46 -56 -48 -44 -4 -90 30 -115 87 -26 58 -27 139 -3
175 16 25 23 27 62 24 24 -2 44 -2 44 -2 0 9 -82 47 -105 50 -16 2 -43 6 -60
8 -16 2 -36 5 -44 5 -10 1 -12 11 -8 42 3 22 8 43 12 47 14 14 96 3 141 -18
94 -45 159 -95 272 -208 39 -40 72 -71 72 -67 0 13 -82 115 -158 196 -94 100
-199 174 -270 190 -37 9 -52 18 -56 32 -8 31 0 35 44 27 22 -4 43 -4 45 1 3 4
-14 11 -39 14 l-44 7 5 46 c4 40 44 203 85 350 14 49 26 52 89 19 24 -13 53
-27 63 -30 17 -7 17 -6 5 9 -8 10 -27 23 -44 31 -16 8 -42 21 -57 29 l-26 14
28 80 c16 44 26 80 23 80 -3 0 -1 6 4 13 6 6 13 21 17 32 6 16 5 18 -5 7 -19
-18 -172 -436 -163 -445 2 -1 -3 -27 -11 -57 -25 -98 -44 -252 -50 -409 -3
-85 -7 -157 -10 -159 -9 -9 -52 110 -90 253 -14 54 -28 101 -30 105 -2 3 -6
28 -9 56 -3 27 -10 74 -15 104 -10 51 -8 491 2 550 10 59 19 170 13 170 -3 0
-6 -6 -7 -12z m-31 -539 c1 -94 6 -188 11 -208 19 -74 22 -121 9 -125 -159
-42 -148 -44 -143 22 3 32 7 68 10 82 12 57 16 77 21 125 3 27 10 57 15 66 8
16 28 88 33 119 1 9 4 20 8 25 3 6 8 22 12 38 15 63 23 17 24 -144z m-198 46
c0 -8 -4 -15 -10 -15 -5 0 -7 7 -4 15 4 8 8 15 10 15 2 0 4 -7 4 -15z m-16
-92 c-3 -32 -6 -129 -6 -215 1 -155 1 -157 -23 -172 -44 -29 -48 -22 -41 65 3
45 8 85 11 89 2 4 7 34 10 68 3 33 12 79 20 101 8 23 14 42 13 44 -3 5 13 77
18 77 2 0 1 -26 -2 -57z m-390 -194 c3 -17 6 -44 6 -58 0 -15 21 -101 46 -192
l45 -164 -36 -31 c-36 -32 -92 -51 -107 -36 -15 15 -9 299 9 387 8 45 11 67
12 98 1 37 17 34 25 -4z m644 -126 c-2 -12 -20 -22 -52 -30 -27 -7 -51 -14
-54 -17 -3 -3 -11 -1 -19 6 -10 8 -12 8 -8 -4 6 -16 -20 -32 -36 -22 -26 16 2
41 56 49 6 1 26 9 45 18 47 22 72 22 68 0z m-260 -100 c-2 -9 -16 -24 -33 -34
-38 -22 -45 -23 -45 -3 0 9 5 12 12 8 8 -5 9 -2 5 9 -5 12 -1 17 13 17 10 0
22 5 25 10 10 16 27 11 23 -7z m296 -35 c2 -7 10 -33 17 -57 12 -40 11 -44 -7
-53 -10 -6 -44 -37 -76 -69 -59 -61 -82 -110 -94 -201 -4 -27 -10 -48 -14 -48
-10 0 -33 182 -36 286 l-2 92 37 16 c40 19 126 44 154 45 10 1 19 -5 21 -11z
m-327 -539 c2 -16 -1 -19 -9 -11 -5 5 -7 15 -4 21 10 15 12 14 13 -10z m356
-106 c-5 -12 -1 -14 18 -9 13 3 18 3 12 0 -19 -8 -16 -27 2 -20 9 3 18 -1 21
-9 4 -8 12 -15 19 -15 7 0 18 -6 24 -14 30 -36 112 -31 156 10 16 15 34 23 44
20 13 -5 12 -3 -2 8 -13 10 -15 15 -5 19 20 6 38 -3 39 -22 0 -9 7 0 14 19 7
19 14 33 15 30 5 -16 6 -50 1 -50 -3 0 -6 -21 -5 -46 0 -28 -5 -52 -14 -60 -8
-8 -12 -17 -9 -20 10 -10 -56 -75 -70 -70 -7 3 -13 1 -13 -5 0 -6 -4 -8 -8 -5
-11 6 -92 -14 -92 -23 0 -4 -21 -6 -47 -4 -44 4 -133 47 -133 66 0 4 -9 16
-21 28 -11 11 -18 27 -15 35 3 7 2 13 -2 13 -18 -3 -21 3 -12 25 5 15 5 27 -2
34 -8 8 -8 15 2 27 7 8 9 15 4 16 -5 0 2 5 16 10 17 7 26 7 28 0 2 -6 8 -11
13 -11 6 0 6 8 -1 19 -14 27 -13 30 9 24 13 -3 17 -10 14 -20z"/>
<path d="M5154 4754 c11 -36 22 -61 24 -55 5 14 -29 121 -38 121 -4 0 3 -30
14 -66z"/>
<path d="M4451 4785 c1 -21 27 -98 28 -80 0 6 -6 30 -13 55 -8 25 -15 36 -15
25z"/>
<path d="M2252 4760 c0 -19 2 -27 5 -17 2 9 2 25 0 35 -3 9 -5 1 -5 -18z"/>
<path d="M3663 4730 c6 -22 15 -40 20 -40 4 0 6 -4 3 -9 -11 -17 101 -402 124
-425 5 -4 -4 32 -19 80 -26 83 -27 89 -11 96 33 12 33 28 1 24 -34 -4 -35 -2
-66 124 -8 36 -18 74 -21 85 -4 15 1 13 20 -10 32 -37 34 -23 3 19 -13 17 -29
46 -36 64 -19 45 -30 40 -18 -8z"/>
<path d="M586 4745 c-3 -9 -6 -22 -5 -28 0 -7 5 -1 10 12 5 13 8 26 5 28 -2 2
-6 -3 -10 -12z"/>
<path d="M2097 4705 c-9 -19 -13 -35 -9 -35 8 0 34 61 29 67 -2 1 -11 -13 -20
-32z"/>
<path d="M1086 4689 c-8 -42 0 -50 9 -9 4 17 5 34 2 36 -2 3 -7 -10 -11 -27z"/>
<path d="M1551 4680 c-7 -23 -10 -44 -8 -47 7 -6 29 65 25 79 -2 6 -10 -8 -17
-32z"/>
<path d="M5360 4685 c0 -8 4 -15 10 -15 5 0 7 7 4 15 -4 8 -8 15 -10 15 -2 0
-4 -7 -4 -15z"/>
<path d="M2242 4670 c0 -14 2 -19 5 -12 2 6 2 18 0 25 -3 6 -5 1 -5 -13z"/>
<path d="M5180 4656 c28 -76 65 -273 80 -432 27 -277 -8 -568 -96 -792 -13
-34 -24 -71 -24 -82 0 -11 -5 -20 -12 -20 -6 0 -9 -3 -5 -6 3 -3 -5 -31 -19
-61 -13 -31 -24 -61 -24 -67 0 -6 -12 -33 -25 -61 -14 -27 -25 -53 -25 -57 0
-4 -13 -35 -29 -70 -16 -35 -35 -81 -41 -103 -7 -22 -23 -59 -36 -81 -13 -23
-21 -44 -17 -47 3 -3 -2 -13 -11 -22 -9 -9 -16 -25 -16 -36 0 -10 -4 -19 -9
-19 -6 0 -8 8 -7 18 2 9 7 49 11 87 4 39 9 81 11 95 3 31 3 443 0 490 -4 55
-27 171 -41 213 -12 32 -11 59 6 190 19 153 23 325 9 467 -5 60 -7 39 -9 -105
-3 -263 -8 -328 -37 -492 -15 -81 -29 -164 -30 -183 -4 -40 -28 -144 -50 -211
-8 -25 -17 -58 -20 -73 -2 -15 -11 -42 -19 -59 -13 -30 -13 -28 -7 33 13 138
8 375 -12 560 -4 37 -26 110 -33 110 -3 0 -2 -26 2 -57 9 -77 12 -98 14 -98 1
0 4 -13 6 -30 2 -16 6 -51 10 -77 4 -33 2 -48 -6 -48 -6 0 -38 27 -71 60 -51
50 -59 63 -54 85 4 14 9 49 11 78 3 28 8 75 11 102 8 74 10 101 12 138 3 45
17 20 38 -70 9 -40 21 -73 26 -73 4 0 6 12 2 28 -12 55 -46 167 -54 177 -5 6
-11 42 -14 80 -3 39 -9 105 -12 148 -4 42 -11 77 -16 77 -5 0 -7 -3 -5 -7 21
-35 22 -388 2 -563 -15 -129 -85 -394 -100 -378 -2 2 -5 36 -6 77 -4 125 -53
280 -136 421 -14 25 -29 47 -32 50 -3 3 -10 12 -16 22 -40 66 -93 137 -98 132
-4 -4 7 -23 23 -44 16 -20 34 -48 41 -63 6 -14 16 -24 20 -21 5 3 9 -4 9 -15
0 -10 3 -21 8 -23 4 -1 17 -22 30 -45 19 -35 20 -43 8 -43 -8 0 -18 5 -21 10
-4 6 -11 8 -16 5 -5 -4 -9 -1 -9 5 0 7 -6 10 -12 7 -7 -2 -35 4 -63 15 -27 10
-86 21 -129 24 -44 2 -86 10 -93 16 -23 19 -14 -6 43 -118 57 -111 56 -113
-16 -44 -15 14 -35 32 -46 40 -10 9 -56 46 -100 83 -45 37 -84 67 -87 67 -2 0
-31 25 -63 55 -33 31 -77 72 -99 93 -43 40 -158 171 -190 217 -11 16 -28 37
-37 47 -10 10 -18 21 -18 26 -1 12 -50 68 -50 56 0 -9 56 -92 115 -169 19 -24
19 -30 0 -48 -20 -20 -7 -29 18 -12 19 13 23 11 51 -23 42 -50 159 -166 234
-232 34 -30 62 -58 62 -62 0 -5 -20 -13 -45 -20 -25 -7 -45 -16 -45 -21 0 -8
17 -5 77 16 24 8 39 8 60 -2 26 -12 27 -14 9 -25 -85 -51 -175 -127 -303 -256
-104 -104 -100 -104 -128 -11 -9 31 -23 77 -30 102 -8 25 -29 119 -47 209 -17
90 -33 159 -35 153 -3 -7 5 -62 16 -125 28 -149 28 -150 39 -192 6 -20 8 -36
6 -36 -3 0 0 -9 6 -20 6 -10 12 -32 14 -47 10 -66 87 -271 143 -380 18 -34 15
-47 -8 -38 -18 8 -110 121 -129 158 -7 15 -17 27 -22 27 -4 0 -8 6 -8 14 0 8
-3 16 -7 18 -15 6 -73 96 -73 112 0 9 -3 16 -7 16 -5 0 -13 10 -19 23 -6 12
-23 45 -38 72 -14 28 -26 56 -26 63 0 6 -4 12 -10 12 -13 0 -13 -5 2 -33 6
-12 16 -31 21 -42 73 -143 177 -306 251 -395 26 -31 65 -64 89 -75 35 -17 43
-26 51 -60 10 -47 64 -186 77 -199 15 -16 10 -26 -13 -27 -23 0 -23 0 1 -10
14 -5 41 -12 60 -15 32 -4 106 -20 139 -30 6 -2 12 1 12 6 0 6 -7 10 -16 10
-23 0 -74 32 -74 47 0 7 -4 13 -8 13 -14 0 -42 68 -42 101 0 21 -4 28 -12 23
-10 -6 -10 -4 -2 7 6 8 15 25 19 38 5 18 4 22 -5 16 -9 -5 -11 -4 -6 3 4 7 15
12 25 12 9 0 22 5 29 12 9 9 12 9 12 1 0 -7 -4 -15 -10 -18 -5 -3 -10 -11 -10
-17 0 -6 8 -3 19 6 18 16 20 16 40 -10 11 -15 21 -31 21 -35 0 -5 9 -9 19 -9
11 0 23 -5 27 -11 16 -26 144 25 144 59 0 6 5 12 11 12 5 0 7 -4 4 -10 -3 -5
-1 -10 4 -10 6 0 11 4 11 8 0 5 10 8 23 7 15 -1 22 -8 23 -22 1 -12 4 -28 7
-37 4 -11 1 -13 -11 -9 -15 6 -15 5 -3 -11 13 -15 13 -19 0 -27 -8 -5 -11 -9
-6 -9 14 0 -27 -55 -77 -103 -34 -32 -56 -45 -68 -41 -37 11 -39 -9 -2 -22 21
-7 40 -11 42 -9 2 2 15 0 28 -5 16 -6 24 -6 24 1 0 5 19 31 43 57 93 101 129
183 147 335 11 94 6 215 -9 230 -4 4 -14 -6 -21 -23 -7 -17 -24 -39 -37 -47
-22 -14 -27 -14 -59 3 -50 26 -84 88 -84 150 0 41 5 55 30 82 22 24 35 32 50
27 18 -6 19 -3 13 27 -3 18 -19 54 -35 80 -16 26 -27 52 -24 57 7 11 38 5 84
-16 18 -8 42 -16 53 -18 21 -4 45 -16 124 -61 108 -62 114 -72 121 -225 3 -67
-1 -111 -11 -145 -8 -26 -13 -49 -11 -51 6 -6 90 186 88 199 -1 4 3 19 8 33 8
22 12 23 32 14 13 -6 36 -27 51 -47 23 -30 27 -43 22 -72 -6 -35 -49 -161 -65
-191 -11 -21 -24 -89 -17 -89 5 0 30 37 125 176 12 19 25 34 28 34 3 0 3 -30
0 -67 -13 -168 -18 -273 -13 -273 8 0 77 221 107 340 20 79 43 145 54 152 7 4
7 14 0 30 -6 13 -8 34 -4 48 6 23 7 23 12 5 10 -31 27 -118 27 -135 0 -8 3
-42 7 -76 5 -43 2 -76 -10 -116 -8 -30 -17 -63 -19 -74 -2 -10 -7 -26 -10 -34
-3 -8 -15 -58 -27 -110 -11 -52 -25 -110 -30 -129 -5 -19 -5 -30 0 -25 4 5 27
83 49 173 51 203 63 226 57 110 -3 -70 -9 -95 -29 -130 -21 -36 -26 -58 -28
-124 -3 -161 -26 -241 -87 -307 -25 -27 -50 -39 -37 -17 9 13 36 141 32 146
-2 2 -16 -42 -32 -97 -15 -56 -25 -104 -21 -107 3 -3 6 1 6 9 0 9 12 18 28 22
29 6 92 93 111 151 9 28 27 240 22 259 -3 14 20 66 28 61 6 -3 1 -79 -13 -190
-23 -184 -25 -205 -14 -211 4 -3 14 8 20 23 7 15 18 34 25 41 7 7 13 22 13 31
0 10 7 24 15 31 8 7 15 19 15 27 0 8 11 38 24 66 14 29 28 64 31 80 8 30 25
47 25 24 0 -8 9 -25 20 -38 l20 -24 -11 30 c-5 16 -15 35 -21 42 -10 13 -6 29
38 128 10 22 18 45 20 50 1 6 11 30 22 55 11 25 28 70 37 100 9 30 20 64 25
75 5 11 12 30 15 43 9 31 36 28 74 -10 60 -59 88 -148 60 -199 -5 -11 -9 -30
-6 -42 3 -20 4 -20 16 8 7 17 14 42 15 57 0 15 5 23 10 18 14 -14 8 -162 -9
-231 -8 -35 -22 -118 -29 -184 -8 -66 -23 -144 -35 -174 -22 -58 -68 -131 -82
-131 -5 0 -9 -7 -9 -15 0 -10 10 -4 29 16 26 27 52 73 94 167 l14 33 16 -39
c8 -21 21 -76 27 -123 7 -46 15 -104 19 -129 l7 -45 22 46 c46 100 61 183 58
333 -2 78 -6 150 -9 161 -3 12 -8 48 -12 80 -4 33 -12 70 -16 83 -8 21 -7 23
13 17 l23 -7 -23 17 c-13 9 -25 15 -28 13 -2 -3 3 -52 12 -109 8 -57 17 -117
20 -134 8 -60 4 -228 -7 -288 -7 -34 -20 -80 -30 -102 l-18 -40 0 40 c-2 56
-35 184 -60 226 -20 33 -20 38 -6 134 9 55 22 132 29 170 9 43 14 111 12 175
-4 107 -1 121 58 375 13 55 27 127 31 160 4 33 9 71 12 85 8 56 10 370 2 370
-5 0 -9 -53 -9 -117 0 -160 -8 -275 -25 -353 -8 -36 -16 -78 -19 -95 -22 -117
-37 -184 -46 -210 -8 -25 -9 -22 -4 20 11 85 13 377 4 430 -5 28 -16 90 -25
139 -9 53 -25 107 -41 135 -16 28 -27 66 -29 98 -5 70 -14 132 -37 238 -38
178 -43 199 -56 203 -9 3 -10 -2 -2 -22z m134 -597 c34 -135 41 -199 41 -384
0 -281 -22 -415 -53 -327 -9 27 -65 92 -80 92 -26 1 -32 17 -18 51 25 61 65
262 72 364 4 55 8 109 9 120 1 11 3 49 4 84 0 35 3 62 6 59 3 -3 11 -29 19
-59z m-1199 -170 c12 -12 1 -11 -65 6 l-55 15 55 -6 c30 -3 59 -9 65 -15z m62
-15 c-3 -3 -12 -4 -19 -1 -8 3 -5 6 6 6 11 1 17 -2 13 -5z m94 -41 c13 -15 12
-15 -8 -4 -24 12 -29 21 -14 21 5 0 15 -7 22 -17z m59 -23 c8 -5 12 -11 10
-14 -3 -2 -14 2 -24 10 -22 15 -10 19 14 4z m-351 -60 c36 -33 62 -62 59 -65
-2 -3 -19 0 -37 6 -51 18 -153 4 -225 -30 -133 -62 -206 -193 -209 -373 -1
-43 -5 -78 -9 -78 -11 0 -106 205 -113 244 -8 40 -8 40 95 124 25 20 47 40 50
44 4 5 41 32 156 115 28 21 51 34 67 39 9 4 17 10 17 14 0 9 28 16 65 18 11 1
48 -24 84 -58z"/>
<path d="M4492 4624 c5 -20 11 -46 14 -58 11 -64 27 -116 34 -116 5 0 2 24 -6
53 -7 28 -18 76 -24 105 -7 28 -15 52 -20 52 -5 0 -4 -16 2 -36z"/>
<path d="M2237 4620 c-3 -11 -1 -23 4 -26 5 -3 9 6 9 20 0 31 -6 34 -13 6z"/>
<path d="M5380 4621 c0 -5 5 -13 10 -16 6 -3 10 -2 10 4 0 5 -4 13 -10 16 -5
3 -10 2 -10 -4z"/>
<path d="M2408 4585 c-4 -22 -11 -55 -14 -74 -5 -23 -4 -32 3 -28 7 5 14 -32
19 -106 5 -61 9 -116 10 -122 10 -80 18 -116 25 -121 8 -5 5 38 -6 91 -2 11
-7 70 -10 130 -4 61 -10 146 -14 190 -6 72 -7 76 -13 40z"/>
<path d="M3749 4601 c14 -26 31 -36 31 -19 0 7 -9 19 -21 26 -19 12 -19 11
-10 -7z"/>
<path d="M1516 4533 c-19 -78 -19 -83 -7 -83 8 0 35 139 28 147 -2 2 -12 -27
-21 -64z"/>
<path d="M5395 4575 c25 -104 45 -198 51 -237 3 -27 10 -48 14 -48 14 0 -31
222 -56 275 -8 17 -12 21 -9 10z"/>
<path d="M2233 4554 c-3 -8 -1 -20 6 -27 8 -8 11 -4 11 16 0 30 -7 35 -17 11z"/>
<path d="M3812 4514 c27 -38 30 -47 18 -56 -13 -8 -12 -9 1 -5 10 3 31 -7 50
-24 46 -41 59 -36 18 8 -44 48 -49 54 -78 91 -38 50 -46 37 -9 -14z"/>
<path d="M3249 4525 c-3 -122 -2 -183 4 -269 12 -162 18 -123 11 70 -4 128 -3
175 5 164 16 -22 13 4 -4 36 l-15 29 -1 -30z"/>
<path d="M3012 4468 c-7 -39 -8 -64 -2 -68 5 -3 10 -38 11 -78 1 -40 5 -72 9
-72 4 0 5 15 4 33 -2 17 -4 80 -5 140 -1 59 -2 107 -3 107 -2 0 -8 -28 -14
-62z"/>
<path d="M2230 4497 c0 -9 4 -18 9 -21 5 -4 8 1 7 9 -3 21 -16 31 -16 12z"/>
<path d="M242 4450 c0 -14 2 -19 5 -12 2 6 2 18 0 25 -3 6 -5 1 -5 -13z"/>
<path d="M2374 4420 c-6 -27 -7 -50 -2 -50 7 0 13 17 21 73 7 48 -9 29 -19
-23z"/>
<path d="M2237 4413 c-11 -92 16 -357 53 -509 12 -47 18 -93 15 -103 -3 -10 1
-24 10 -31 14 -12 52 -86 76 -149 15 -37 19 -20 8 28 -7 31 -7 46 1 51 7 4 6
16 -4 36 -15 30 -23 110 -31 322 -5 120 -5 123 15 117 24 -7 26 2 5 24 -15 18
-19 63 -9 126 5 34 4 38 -7 27 -11 -10 -14 -65 -13 -265 0 -139 4 -277 7 -307
4 -38 3 -50 -4 -38 -16 28 -69 208 -74 252 -3 23 -10 66 -15 97 -12 63 -21
200 -20 297 0 70 -5 81 -13 25z"/>
<path d="M4537 4408 c6 -35 11 -44 17 -37 7 8 -6 69 -15 69 -5 0 -6 -15 -2
-32z"/>
<path d="M4843 4380 c0 -25 2 -35 4 -22 2 12 2 32 0 45 -2 12 -4 2 -4 -23z"/>
<path d="M517 4380 c-3 -11 -1 -20 4 -20 5 0 9 9 9 20 0 11 -2 20 -4 20 -2 0
-6 -9 -9 -20z"/>
<path d="M2997 4384 c-4 -4 -7 -17 -7 -28 1 -19 1 -20 11 -3 11 19 8 43 -4 31z"/>
<path d="M3947 4369 c12 -12 24 -21 27 -18 2 2 -8 13 -22 23 l-27 19 22 -24z"/>
<path d="M2160 4341 c0 -5 7 -11 15 -15 8 -3 15 -1 15 3 0 5 -7 11 -15 15 -8
3 -15 1 -15 -3z"/>
<path d="M222 4305 c0 -16 2 -22 5 -12 2 9 2 23 0 30 -3 6 -5 -1 -5 -18z"/>
<path d="M2987 4290 c-7 -41 -9 -162 -8 -327 1 -35 5 -63 10 -63 5 0 7 69 6
154 -1 85 0 172 4 193 4 21 4 49 1 63 -5 21 -7 18 -13 -20z"/>
<path d="M4030 4275 c0 -3 12 -18 26 -33 l25 -27 -18 32 c-16 29 -33 43 -33
28z"/>
<path d="M5462 4250 c0 -19 2 -27 5 -17 2 9 2 25 0 35 -3 9 -5 1 -5 -18z"/>
<path d="M223 4190 c0 -41 2 -58 4 -37 2 20 2 54 0 75 -2 20 -4 3 -4 -38z"/>
<path d="M513 4205 c0 -27 2 -38 4 -22 2 15 2 37 0 50 -2 12 -4 0 -4 -28z"/>
<path d="M3036 4185 c7 -85 14 -116 25 -109 5 3 6 11 2 17 -4 7 -9 30 -10 52
-2 22 -7 54 -13 70 -7 23 -8 17 -4 -30z"/>
<path d="M3827 4200 c3 -11 10 -20 15 -20 5 0 6 -5 2 -12 -4 -6 -3 -8 4 -5 7
5 7 15 -1 32 -14 30 -27 33 -20 5z"/>
<path d="M4100 4184 c0 -6 11 -24 25 -40 14 -16 25 -24 25 -18 0 6 -11 24 -25
40 -14 16 -25 24 -25 18z"/>
<path d="M518 4090 c2 -22 6 -40 8 -40 2 0 4 18 4 40 0 22 -3 40 -8 40 -4 0
-6 -18 -4 -40z"/>
<path d="M3271 4114 c0 -11 3 -14 6 -6 3 7 2 16 -1 19 -3 4 -6 -2 -5 -13z"/>
<path d="M3866 4117 c3 -10 9 -15 12 -12 3 3 0 11 -7 18 -10 9 -11 8 -5 -6z"/>
<path d="M2450 4118 c0 -6 16 -90 24 -123 11 -48 49 -164 67 -202 10 -24 19
-45 19 -48 0 -16 147 -295 164 -310 12 -12 30 -39 48 -72 6 -13 19 -25 30 -28
10 -4 18 -10 18 -14 0 -20 69 -82 260 -234 8 -7 43 -25 78 -41 34 -16 64 -38
68 -48 5 -16 24 -26 24 -12 0 3 -16 33 -35 65 -19 33 -35 62 -35 65 0 3 -13
34 -29 68 -15 34 -36 86 -45 116 -16 57 -36 95 -36 73 0 -22 24 -103 31 -103
3 0 9 -13 12 -29 3 -16 22 -63 42 -106 19 -42 35 -78 35 -81 0 -6 -54 19 -67
32 -6 6 -35 26 -64 45 -30 19 -61 41 -69 49 -9 8 -43 38 -75 67 -97 83 -118
106 -154 163 -19 30 -39 60 -45 65 -6 6 -29 46 -51 90 -22 44 -42 82 -45 85
-3 3 -23 46 -44 95 -21 50 -42 99 -47 110 -5 11 -22 73 -39 139 -25 100 -40
147 -40 124z"/>
<path d="M232 4055 c0 -16 2 -22 5 -12 2 9 2 23 0 30 -3 6 -5 -1 -5 -18z"/>
<path d="M3890 4055 c0 -13 43 -95 50 -95 4 0 -3 21 -16 47 -25 49 -34 62 -34
48z"/>
<path d="M3061 4035 c1 -19 18 -51 18 -35 0 8 -4 22 -9 30 -5 8 -9 11 -9 5z"/>
<path d="M528 3985 c2 -14 6 -25 8 -25 2 0 4 11 4 25 0 14 -4 25 -9 25 -4 0
-6 -11 -3 -25z"/>
<path d="M5659 3969 c19 -15 26 -17 32 -7 9 15 -8 28 -36 28 -19 -1 -18 -2 4
-21z"/>
<path d="M1990 3949 c0 -8 9 -10 35 -9 3 0 19 -7 35 -15 17 -9 30 -11 30 -6 0
5 -17 15 -37 22 -51 17 -63 19 -63 8z"/>
<path d="M3086 3930 c7 -38 11 -46 20 -38 3 3 -2 21 -10 39 l-16 34 6 -35z"/>
<path d="M2104 3911 c3 -5 20 -14 38 -20 38 -13 26 0 -15 17 -16 7 -26 8 -23
3z"/>
<path d="M541 3894 c0 -11 3 -14 6 -6 3 7 2 16 -1 19 -3 4 -6 -2 -5 -13z"/>
<path d="M2985 3855 c3 -22 7 -65 10 -95 15 -166 56 -370 76 -370 4 0 -4 40
-16 90 -13 49 -29 134 -35 187 -20 182 -22 198 -32 213 -6 10 -7 2 -3 -25z"/>
<path d="M2180 3871 c0 -5 11 -16 25 -25 30 -20 32 -13 5 14 -22 22 -30 25
-30 11z"/>
<path d="M3100 3874 c0 -6 11 -37 25 -70 25 -60 35 -55 13 7 -12 37 -38 80
-38 63z"/>
<path d="M3635 3854 c-16 -14 -44 -32 -62 -40 -18 -9 -44 -27 -58 -40 -14 -13
-31 -24 -36 -24 -6 0 -7 -4 -4 -10 3 -5 1 -10 -5 -10 -14 0 -82 -62 -74 -69 3
-3 8 -1 12 4 4 6 28 27 54 48 26 21 54 44 62 52 8 8 41 30 75 50 56 33 78 52
70 60 -2 2 -17 -8 -34 -21z"/>
<path d="M2260 3820 c0 -12 28 -25 36 -17 3 3 -4 10 -15 17 -15 7 -21 7 -21 0z"/>
<path d="M557 3803 c-2 -4 1 -26 9 -48 l12 -40 -5 45 c-6 49 -9 56 -16 43z"/>
<path d="M291 3744 c0 -11 3 -14 6 -6 3 7 2 16 -1 19 -3 4 -6 -2 -5 -13z"/>
<path d="M581 3700 c0 -8 4 -22 9 -30 12 -18 12 -2 0 25 -6 13 -9 15 -9 5z"/>
<path d="M600 3622 c0 -5 16 -53 35 -108 19 -54 35 -112 35 -129 0 -16 5 -37
11 -45 8 -11 9 -7 5 18 -3 17 -4 32 -2 32 6 0 40 -74 38 -82 -1 -5 3 -8 8 -8
13 0 14 0 -15 56 -14 27 -25 53 -25 57 0 4 -13 36 -29 70 -16 34 -34 81 -40
105 -11 38 -21 55 -21 34z"/>
<path d="M352 3549 c6 -16 12 -29 13 -27 6 6 -8 58 -16 58 -4 0 -3 -14 3 -31z"/>
<path d="M391 3450 c0 -8 4 -22 9 -30 12 -18 12 -2 0 25 -6 13 -9 15 -9 5z"/>
<path d="M5675 3411 c-11 -5 -60 -11 -108 -15 -49 -3 -93 -8 -98 -12 -16 -9 2
-25 21 -19 28 9 60 14 120 20 81 8 111 16 104 26 -6 11 -12 11 -39 0z"/>
<path d="M420 3395 c0 -5 5 -17 10 -25 5 -8 10 -10 10 -5 0 6 -5 17 -10 25 -5
8 -10 11 -10 5z"/>
<path d="M440 3336 c0 -8 5 -18 10 -21 6 -3 10 1 10 9 0 8 -4 18 -10 21 -5 3
-10 -1 -10 -9z"/>
<path d="M5522 3314 c18 -20 38 -44 43 -53 6 -9 22 -33 37 -52 14 -19 47 -79
73 -134 29 -63 44 -87 41 -66 -4 19 -13 48 -21 64 -8 17 -15 34 -15 39 0 5
-12 25 -26 43 -14 19 -25 37 -24 40 3 12 -118 155 -131 155 -5 0 5 -16 23 -36z"/>
<path d="M468 3265 c-5 -22 -3 -24 11 -13 9 7 17 13 19 14 1 1 -4 6 -12 13
-11 9 -15 7 -18 -14z"/>
<path d="M218 3225 c-4 -5 -57 -13 -90 -14 -10 -1 -18 -5 -18 -9 0 -5 18 -7
40 -5 22 2 40 2 40 0 0 -2 -11 -27 -26 -56 -25 -54 -61 -144 -69 -178 -28
-112 -46 -201 -51 -261 -7 -80 2 -182 16 -182 5 0 6 15 3 33 -9 41 -8 114 1
197 8 71 51 243 69 275 6 11 12 22 12 25 1 3 9 22 18 44 9 21 17 45 17 52 0 8
3 14 8 14 8 0 44 61 39 66 -2 2 -6 2 -9 -1z"/>
<path d="M446 3199 c-3 -17 -6 -68 -6 -113 l0 -81 -105 -103 c-58 -57 -103
-107 -100 -112 3 -4 -2 -14 -11 -21 -22 -18 -76 -105 -136 -218 -20 -37 -25
-58 -18 -65 9 -9 10 -8 10 19 0 3 12 29 27 58 23 44 45 80 108 175 6 8 22 28
38 44 15 16 27 32 27 36 0 9 125 138 151 156 15 10 19 32 22 134 2 67 3 122 2
122 -2 0 -5 -14 -9 -31z"/>
<path d="M541 3185 c18 -27 39 -56 45 -62 8 -9 11 -32 7 -70 -3 -43 -2 -54 6
-43 6 8 8 22 5 32 -10 34 15 26 60 -18 25 -26 46 -48 46 -50 0 -8 42 -45 46
-41 3 3 -14 25 -38 49 -51 54 -88 97 -131 156 -53 72 -81 101 -46 47z"/>
<path d="M5140 3212 c0 -8 8 -39 17 -70 9 -32 16 -61 15 -65 -2 -5 2 -6 7 -3
6 4 4 27 -3 59 -12 53 -35 103 -36 79z"/>
<path d="M27 3203 c-15 -3 -27 -9 -27 -15 0 -5 7 -7 16 -4 9 3 31 6 50 6 19 0
34 4 34 8 0 9 -31 11 -73 5z"/>
<path d="M4496 3111 c-4 -7 -5 -15 -2 -18 9 -9 19 4 14 18 -4 11 -6 11 -12 0z"/>
<path d="M3780 3101 c0 -6 5 -13 10 -16 6 -3 10 1 10 9 0 9 -4 16 -10 16 -5 0
-10 -4 -10 -9z"/>
<path d="M5474 3092 c3 -5 20 -15 37 -22 39 -17 148 -122 180 -175 21 -35 24
-37 27 -18 2 12 -5 30 -15 40 -10 10 -27 29 -38 43 -27 34 -119 110 -132 110
-6 0 -13 4 -15 9 -1 4 -14 12 -27 16 -14 4 -21 3 -17 -3z"/>
<path d="M3730 3080 c-9 -6 -10 -10 -3 -10 6 0 15 5 18 10 8 12 4 12 -15 0z"/>
<path d="M5170 2985 c0 -14 2 -25 4 -25 2 0 6 11 8 25 3 14 1 25 -3 25 -5 0
-9 -11 -9 -25z"/>
<path d="M442 2935 c0 -16 2 -22 5 -12 2 9 2 23 0 30 -3 6 -5 -1 -5 -18z"/>
<path d="M2842 2930 c0 -19 2 -27 5 -17 2 9 2 25 0 35 -3 9 -5 1 -5 -18z"/>
<path d="M1540 2906 c0 -3 9 -10 20 -16 11 -6 20 -8 20 -6 0 3 -9 10 -20 16
-11 6 -20 8 -20 6z"/>
<path d="M442 2818 c0 -49 4 -88 7 -88 4 0 5 33 3 73 -5 106 -10 115 -10 15z"/>
<path d="M1590 2876 c0 -7 62 -36 74 -36 6 1 -5 9 -24 20 -35 19 -50 24 -50
16z"/>
<path d="M2835 2850 c-7 -31 -47 -70 -73 -70 -22 0 -10 -84 27 -195 17 -49 31
-100 31 -112 0 -12 5 -25 11 -29 8 -4 10 42 8 157 -1 90 1 190 5 222 9 60 2
79 -9 27z"/>
<path d="M3860 2860 c0 -6 7 -10 15 -10 8 0 15 2 15 4 0 2 -7 6 -15 10 -8 3
-15 1 -15 -4z"/>
<path d="M4745 2814 c-3 -26 -9 -54 -12 -63 -4 -9 -3 -13 2 -9 11 10 35 118
25 118 -4 0 -11 -21 -15 -46z"/>
<path d="M5052 2795 c1 -38 -2 -89 -6 -112 -5 -27 -4 -43 2 -43 15 0 26 163
14 197 -8 23 -10 17 -10 -42z"/>
<path d="M4070 2820 c0 -5 5 -10 10 -10 6 0 10 5 10 10 0 6 -4 10 -10 10 -5 0
-10 -4 -10 -10z"/>
<path d="M451 2674 c0 -11 3 -14 6 -6 3 7 2 16 -1 19 -3 4 -6 -2 -5 -13z"/>
<path d="M5046 2585 c-13 -14 -25 -25 -28 -25 -8 0 -88 -76 -88 -84 0 -15 92
62 134 112 26 30 11 28 -18 -3z"/>
<path d="M740 2500 c0 -5 3 -10 8 -10 4 0 30 -20 57 -45 28 -25 62 -50 78 -57
15 -7 27 -16 27 -19 0 -4 14 -9 30 -11 17 -3 30 -1 30 4 0 4 -8 8 -17 8 -24 0
-120 63 -179 118 -28 24 -34 27 -34 12z"/>
<path d="M4657 2497 c-14 -37 -8 -42 45 -42 29 0 72 -4 96 -8 26 -6 42 -5 42
1 0 5 -28 13 -62 16 -89 10 -106 16 -110 34 -3 15 -4 15 -11 -1z"/>
<path d="M5123 2457 c-45 -34 -57 -55 -21 -35 23 13 68 55 68 64 0 6 -1 5 -47
-29z"/>
<path d="M4875 2460 c-8 -13 15 -13 35 0 12 8 11 10 -7 10 -12 0 -25 -4 -28
-10z"/>
<path d="M4641 2433 c-1 -6 -4 -20 -7 -30 -5 -17 -5 -17 6 0 6 10 9 23 6 30
-3 9 -5 9 -5 0z"/>
<path d="M5035 2397 c-46 -28 -85 -59 -85 -69 0 -5 15 3 34 20 19 17 44 33 55
37 12 3 21 11 21 16 0 11 0 11 -25 -4z"/>
<path d="M714 2376 c16 -14 34 -26 40 -26 12 1 -17 26 -49 42 -12 6 -8 -1 9
-16z"/>
<path d="M1070 2380 c-9 -6 -10 -10 -3 -10 6 0 15 5 18 10 8 12 4 12 -15 0z"/>
<path d="M1108 2383 c7 -3 16 -2 19 1 4 3 -2 6 -13 5 -11 0 -14 -3 -6 -6z"/>
<path d="M4623 2363 c-3 -10 -8 -21 -10 -25 -2 -5 0 -8 5 -8 5 0 12 11 14 25
6 29 0 33 -9 8z"/>
<path d="M990 2360 c-18 -12 -2 -12 25 0 13 6 15 9 5 9 -8 0 -22 -4 -30 -9z"/>
<path d="M1180 2312 c0 -26 40 -156 51 -166 9 -8 10 -6 4 9 -5 11 -16 51 -27
89 -17 67 -28 92 -28 68z"/>
<path d="M4920 2309 c0 -5 5 -7 10 -4 6 3 10 8 10 11 0 2 -4 4 -10 4 -5 0 -10
-5 -10 -11z"/>
<path d="M831 2263 c18 -21 42 -49 54 -62 64 -76 110 -110 157 -116 32 -4 36
-3 18 3 -57 20 -92 46 -167 127 -79 84 -126 121 -62 48z"/>
<path d="M4601 2274 c0 -11 3 -14 6 -6 3 7 2 16 -1 19 -3 4 -6 -2 -5 -13z"/>
<path d="M4576 2205 c-9 -21 -16 -44 -16 -51 0 -8 -9 -41 -21 -75 -12 -33 -19
-62 -17 -65 3 -2 15 25 27 61 19 54 26 63 40 56 9 -5 41 -9 71 -8 l55 0 27
-54 c32 -64 36 -59 8 10 l-19 49 22 16 c18 12 19 15 5 15 -9 1 -18 -3 -20 -9
-3 -9 -69 -13 -116 -7 -35 5 -43 19 -32 57 13 47 4 50 -14 5z"/>
<path d="M1230 2113 c0 -8 -15 -13 -37 -14 -21 -1 -49 -4 -63 -8 -23 -7 -21
-8 15 -13 22 -3 46 -2 54 2 26 14 48 -2 62 -43 19 -60 75 -173 96 -195 10 -10
25 -29 33 -42 26 -40 152 -160 167 -160 5 0 23 -13 42 -29 40 -34 178 -118
241 -146 152 -68 185 -96 194 -160 4 -26 10 -57 12 -68 3 -12 11 -60 20 -106
8 -46 17 -88 20 -92 3 -5 1 -9 -4 -9 -4 0 -48 44 -98 97 -49 53 -104 112 -121
131 -18 19 -33 39 -33 43 0 4 -12 21 -26 36 -15 15 -40 48 -55 72 -43 66 -35
11 19 -139 9 -25 16 -47 15 -50 -1 -3 3 -11 9 -18 18 -21 3 -23 -18 -2 -37 37
-169 235 -235 352 -24 43 -49 78 -56 78 -21 0 -24 -56 -13 -201 6 -79 13 -146
15 -149 7 -12 17 -100 11 -100 -4 0 -29 48 -57 108 -68 143 -74 158 -94 222
-10 30 -21 64 -25 75 -17 43 -49 173 -56 220 -6 46 -23 95 -24 68 -1 -32 -242
-233 -280 -233 -6 0 -10 -4 -10 -10 0 -6 9 -6 26 0 14 6 30 7 36 4 6 -4 8 -2
5 3 -4 6 9 21 29 32 19 12 48 32 62 46 15 13 49 44 76 69 27 25 53 43 57 40 5
-3 9 -18 9 -33 0 -16 7 -47 15 -70 8 -23 15 -45 15 -49 2 -27 55 -197 74 -237
8 -16 36 -79 63 -140 43 -99 98 -183 110 -171 3 3 0 27 -7 55 -21 87 -26 133
-35 296 l-7 130 26 -30 c14 -16 25 -34 26 -39 0 -4 14 -28 30 -53 17 -24 39
-61 50 -81 11 -20 36 -57 55 -82 18 -25 34 -49 34 -53 1 -5 7 -14 14 -21 6 -8
19 -24 27 -37 23 -35 119 -133 125 -128 2 3 -6 28 -19 55 -37 76 -53 116 -61
151 -3 18 -11 35 -16 38 -5 4 -9 12 -9 18 1 7 10 1 21 -13 32 -38 137 -157
201 -225 32 -34 66 -73 77 -87 l20 -25 -55 -17 c-30 -10 -76 -21 -102 -26 -26
-5 -96 -17 -157 -28 -60 -11 -126 -22 -145 -25 -137 -19 -163 -32 -214 -106
-34 -48 -66 -157 -66 -221 0 -43 3 -48 80 -120 44 -41 80 -83 80 -92 0 -16
-51 -38 -87 -38 -7 0 -13 -5 -13 -11 0 -5 4 -8 8 -5 4 3 27 7 49 10 33 4 42 1
45 -12 7 -27 -19 -224 -33 -254 l-12 -28 -371 1 c-342 0 -368 2 -331 16 22 8
45 16 50 17 51 14 65 19 65 27 0 5 3 8 8 7 7 -3 73 20 154 53 67 27 152 18 98
-11 -11 -6 -20 -17 -20 -25 0 -8 -4 -15 -10 -15 -5 0 -10 -7 -10 -15 0 -8 2
-15 4 -15 5 0 101 100 135 140 69 83 77 89 115 95 57 8 59 17 2 14 -46 -3 -51
-6 -108 -70 -59 -67 -60 -68 -111 -68 -71 -1 -66 1 -247 -69 -14 -5 -29 -11
-35 -12 -5 -1 -15 -6 -20 -10 -6 -5 -47 -20 -90 -34 -79 -25 -84 -26 -407 -26
-212 0 -328 -4 -328 -10 0 -7 960 -10 2860 -10 1900 0 2860 3 2860 10 0 7
-175 10 -506 10 l-506 0 -46 32 c-26 18 -59 43 -74 57 -16 14 -28 21 -28 17 0
-5 -7 -3 -15 4 -8 7 -15 9 -15 4 1 -8 19 -21 117 -84 12 -8 23 -18 23 -22 0
-5 -76 -8 -169 -8 l-170 0 -15 54 c-10 34 -16 93 -16 158 l0 105 33 31 c106
101 120 128 105 196 -12 55 -106 195 -161 240 -46 38 -99 55 -334 106 -198 42
-248 54 -251 56 -9 7 11 84 26 100 14 16 51 64 145 191 6 8 6 13 -1 13 -5 0
-33 -30 -61 -68 -28 -37 -57 -74 -66 -83 -8 -9 -15 -21 -15 -27 0 -6 -5 -14
-11 -18 -11 -6 -9 9 8 85 4 16 2 22 -7 19 -7 -2 -14 -19 -16 -38 -2 -19 -6
-44 -8 -55 -3 -11 -8 -72 -11 -135 -4 -63 -8 -120 -9 -125 -5 -14 -163 -18
-611 -19 -359 -1 -780 12 -780 23 0 1 -28 3 -62 4 -34 1 -64 5 -67 8 -7 7 -14
35 -21 94 -3 21 -10 56 -15 76 -6 21 -13 57 -16 81 -3 24 -9 57 -14 73 -7 26
-19 86 -25 135 -2 8 -6 23 -10 32 -7 17 -5 17 26 2 19 -8 46 -20 62 -27 15 -6
27 -15 27 -20 0 -4 5 -5 10 -2 6 3 10 1 10 -5 0 -6 4 -9 9 -6 5 3 11 -1 15 -9
3 -8 13 -15 22 -15 15 0 110 -54 124 -70 3 -3 20 -12 38 -19 17 -8 32 -17 32
-21 0 -4 17 -15 38 -24 20 -9 55 -28 77 -41 22 -14 47 -28 55 -32 8 -4 22 -13
32 -22 9 -8 24 -16 33 -17 9 -1 26 -10 36 -20 11 -10 27 -19 36 -20 9 -2 19
-6 22 -11 6 -9 28 -23 76 -49 35 -20 145 -29 145 -12 0 6 3 8 6 5 4 -3 16 -1
28 5 11 7 24 11 29 10 4 -1 7 3 7 9 0 5 4 8 10 4 5 -3 18 3 28 13 11 11 40 30
66 42 25 13 46 27 46 32 0 5 15 16 33 24 17 8 61 33 97 54 59 36 123 72 265
148 27 15 55 33 63 40 7 6 17 12 22 12 5 0 16 7 25 16 27 28 37 3 20 -52 -17
-58 -18 -64 -6 -64 5 0 15 26 21 58 19 88 32 108 98 142 22 12 46 28 53 36 6
8 17 14 24 14 7 0 32 15 56 33 24 19 56 40 71 48 46 24 268 169 286 187 10 9
30 26 46 37 55 40 94 86 109 130 l7 20 -15 -20 c-47 -63 -65 -82 -115 -119
-30 -22 -61 -47 -68 -53 -7 -7 -20 -13 -28 -13 -8 0 -14 -4 -14 -9 0 -9 -97
-77 -140 -98 -14 -7 -60 -35 -103 -63 -43 -27 -83 -50 -88 -50 -5 0 -9 -3 -9
-8 0 -4 -9 -12 -19 -17 -11 -6 -65 -38 -120 -72 -56 -34 -101 -59 -101 -55 0
4 -4 2 -8 -3 -8 -12 -86 -61 -152 -96 -25 -13 -48 -28 -52 -34 -4 -5 -8 -6 -8
-2 0 4 -10 -2 -22 -13 -12 -11 -28 -18 -35 -16 -7 3 -13 1 -13 -4 0 -6 -9 -10
-20 -10 -11 0 -20 -6 -20 -12 0 -7 -13 -20 -29 -28 -34 -17 -165 -95 -231
-137 -25 -15 -49 -28 -55 -28 -5 0 -13 -4 -17 -9 -3 -5 -33 -12 -66 -14 -61
-4 -119 14 -152 47 -14 15 -35 28 -142 84 -26 14 -44 28 -40 32 4 4 3 6 -3 4
-14 -3 -65 19 -65 28 0 5 -20 16 -45 26 -25 11 -45 23 -45 29 0 5 -4 7 -9 3
-6 -3 -14 3 -20 12 -6 10 -11 14 -11 10 0 -5 -15 0 -32 11 -18 11 -51 30 -73
42 -22 12 -53 30 -70 40 -44 27 -173 97 -225 123 -25 12 -51 28 -58 35 -7 6
-20 12 -28 12 -8 0 -14 4 -14 8 0 5 -18 15 -40 22 -22 7 -40 17 -40 22 0 4 -5
8 -11 8 -12 0 -99 40 -109 50 -3 3 -31 22 -62 43 -32 20 -58 42 -58 47 0 6 -7
10 -15 10 -8 0 -15 4 -15 9 0 5 -9 13 -20 16 -11 4 -18 10 -15 15 3 5 -3 11
-14 15 -20 6 -109 103 -148 160 -28 41 -93 179 -93 198 0 17 -29 56 -30 40z"/>
<path d="M1142 2005 c-17 -37 -14 -45 4 -12 9 16 14 31 11 33 -2 2 -9 -7 -15
-21z"/>
<path d="M4770 1993 c5 -10 16 -36 25 -57 8 -22 17 -37 20 -34 7 7 -36 108
-46 108 -5 0 -5 -8 1 -17z"/>
<path d="M4506 1975 c-9 -26 -7 -32 5 -12 6 10 9 21 6 23 -2 3 -7 -2 -11 -11z"/>
<path d="M1096 1918 l-17 -33 20 24 c18 20 27 41 18 41 -1 0 -11 -15 -21 -32z"/>
<path d="M4486 1925 c-9 -26 -7 -32 5 -12 6 10 9 21 6 23 -2 3 -7 -2 -11 -11z"/>
<path d="M2845 1902 c-46 -5 -109 -38 -139 -72 -14 -17 -26 -35 -26 -39 0 -15
36 -36 56 -33 22 3 41 42 21 42 -6 0 -1 7 11 16 13 9 32 14 43 11 11 -3 19 0
19 6 0 7 5 5 10 -3 9 -13 11 -13 20 0 5 8 10 10 10 3 0 -6 8 -9 18 -6 10 2 31
-1 47 -8 17 -7 36 -13 44 -15 44 -9 61 -15 61 -25 0 -6 -4 -8 -9 -4 -5 3 -12
1 -16 -5 -4 -6 6 -10 24 -10 25 0 31 4 31 22 0 28 -45 87 -78 100 -34 14 -108
24 -147 20z m-95 -122 c0 -6 -9 -5 -20 2 -11 7 -20 16 -20 21 0 4 9 3 20 -3
11 -6 20 -15 20 -20z"/>
<path d="M4820 1880 c0 -17 65 -134 117 -211 l32 -47 -31 16 c-53 26 -211 136
-258 180 -41 38 -46 40 -62 25 -10 -9 -18 -23 -18 -32 0 -34 -69 -171 -136
-271 -41 -63 -110 -147 -172 -210 l-103 -105 40 80 c62 124 91 214 91 282 l0
36 -30 -38 c-16 -21 -30 -41 -30 -44 0 -4 -15 -22 -32 -42 -18 -19 -49 -54
-68 -79 -45 -58 -83 -100 -200 -220 -52 -53 -114 -118 -138 -144 -23 -25 -44
-46 -47 -46 -4 0 76 169 95 200 5 8 21 38 36 65 14 28 35 63 46 78 11 16 17
31 14 34 -6 6 -56 -42 -56 -54 0 -3 -8 -11 -17 -18 -9 -7 -17 -23 -18 -36 0
-13 -26 -76 -57 -139 -90 -183 -89 -216 3 -108 29 35 101 110 159 168 58 58
141 148 185 200 44 52 85 101 92 108 7 8 18 23 24 34 6 11 13 17 16 14 6 -6
-18 -108 -29 -120 -4 -6 -8 -17 -8 -26 0 -15 -10 -37 -77 -158 -19 -35 -31
-67 -27 -70 4 -4 9 -1 11 6 3 6 9 12 14 12 5 0 48 39 95 88 157 158 287 352
334 499 7 21 15 42 17 46 3 4 32 -16 65 -45 33 -29 77 -64 98 -78 122 -82 148
-97 178 -108 25 -9 32 -8 32 2 0 8 -7 19 -15 26 -19 16 -106 153 -134 213 -22
46 -31 57 -31 37z"/>
<path d="M1038 1822 c-21 -32 -47 -68 -58 -80 -11 -11 -20 -24 -20 -27 0 -4
-30 -36 -67 -71 -37 -35 -64 -66 -61 -70 10 -10 49 6 42 18 -3 5 17 32 45 59
28 27 51 52 51 56 0 4 11 18 24 32 31 33 99 141 89 141 -4 -1 -25 -27 -45 -58z"/>
<path d="M904 1605 c-10 -8 -14 -14 -9 -14 6 0 19 6 29 14 11 8 15 15 10 15
-6 0 -19 -7 -30 -15z"/>
<path d="M2885 1560 c-3 -5 -1 -10 4 -10 6 0 11 5 11 10 0 6 -2 10 -4 10 -3 0
-8 -4 -11 -10z"/>
<path d="M2910 1550 c0 -5 7 -7 15 -4 8 4 15 8 15 10 0 2 -7 4 -15 4 -8 0 -15
-4 -15 -10z"/>
<path d="M4325 180 c3 -5 23 -10 43 -9 30 0 33 2 17 9 -28 12 -67 12 -60 0z"/>
<path d="M4410 170 c0 -5 5 -10 10 -10 6 0 10 5 10 10 0 6 -4 10 -10 10 -5 0
-10 -4 -10 -10z"/>
<path d="M4488 143 c6 -2 18 -2 25 0 6 3 1 5 -13 5 -14 0 -19 -2 -12 -5z"/>
</g>
</svg>
